<svg width="85" height="81" viewBox="0 0 85 81" fill="none" xmlns="http://www.w3.org/2000/svg">
<path d="M28.3752 38.4791C29.7021 38.4791 31.016 38.2178 32.2419 37.71C33.4678 37.2022 34.5816 36.458 35.5199 35.5197C36.4581 34.5814 37.2024 33.4676 37.7102 32.2417C38.218 31.0158 38.4793 29.7019 38.4793 28.375C38.4793 27.0481 38.218 25.7342 37.7102 24.5083C37.2024 23.2824 36.4581 22.1685 35.5199 21.2303C34.5816 20.292 33.4678 19.5477 32.2419 19.0399C31.016 18.5322 29.7021 18.2708 28.3752 18.2708C25.6954 18.2708 23.1253 19.3354 21.2304 21.2303C19.3355 23.1252 18.271 25.6952 18.271 28.375C18.271 29.7019 18.5323 31.0158 19.0401 32.2417C19.5479 33.4676 20.2922 34.5814 21.2304 35.5197C23.1253 37.4146 25.6954 38.4791 28.3752 38.4791ZM28.3752 0.083313C43.976 0.083313 56.6668 12.7337 56.6668 28.375C56.6668 49.5937 28.3752 80.9167 28.3752 80.9167C28.3752 80.9167 0.0834961 49.5937 0.0834961 28.375C0.0834961 20.8716 3.06422 13.6755 8.36993 8.36975C13.6756 3.06403 20.8717 0.083313 28.3752 0.083313ZM52.6252 60.7083H64.7502V48.5833H72.8335V60.7083H84.9585V68.7917H72.8335V80.9167H64.7502V68.7917H52.6252V60.7083Z" fill="white"/>
</svg>
