<svg width="58" height="57" viewBox="0 0 58 57" fill="none" xmlns="http://www.w3.org/2000/svg">
<path d="M28.9994 56.6667C25.0799 56.6667 21.3966 55.9224 17.9494 54.434C14.5021 52.9456 11.5035 50.9273 8.95352 48.3792C6.40352 45.8311 4.38524 42.8324 2.89869 39.3833C1.41213 35.9342 0.667908 32.2509 0.666019 28.3333C0.66413 24.4158 1.40835 20.7324 2.89869 17.2833C4.38902 13.8342 6.4073 10.8356 8.95352 8.2875C11.4997 5.73939 14.4984 3.72111 17.9494 2.23267C21.4004 0.744222 25.0837 0 28.9994 0C32.915 0 36.5984 0.744222 40.0494 2.23267C43.5004 3.72111 46.499 5.73939 49.0452 8.2875C51.5914 10.8356 53.6106 13.8342 55.1029 17.2833C56.5951 20.7324 57.3384 24.4158 57.3327 28.3333C57.327 32.2509 56.5828 35.9342 55.1 39.3833C53.6172 42.8324 51.599 45.8311 49.0452 48.3792C46.4914 50.9273 43.4928 52.9465 40.0494 54.4368C36.6059 55.9272 32.9226 56.6704 28.9994 56.6667ZM29.566 31.1667L27.016 33.7167C26.4966 34.2361 26.2369 34.8972 26.2369 35.7C26.2369 36.5028 26.4966 37.1639 27.016 37.6833C27.5355 38.2028 28.1966 38.4625 28.9994 38.4625C29.8021 38.4625 30.4632 38.2028 30.9827 37.6833L38.3494 30.3167C38.916 29.75 39.1994 29.0889 39.1994 28.3333C39.1994 27.5778 38.916 26.9167 38.3494 26.35L30.9827 18.9833C30.4632 18.4639 29.8021 18.2042 28.9994 18.2042C28.1966 18.2042 27.5355 18.4639 27.016 18.9833C26.4966 19.5028 26.2369 20.1639 26.2369 20.9667C26.2369 21.7694 26.4966 22.4306 27.016 22.95L29.566 25.5H20.4994C19.6966 25.5 19.0241 25.772 18.482 26.316C17.9399 26.86 17.6679 27.5324 17.666 28.3333C17.6641 29.1342 17.9361 29.8076 18.482 30.3535C19.0279 30.8994 19.7004 31.1704 20.4994 31.1667H29.566Z" fill="white"/>
</svg>
