<svg width="51" height="51" viewBox="0 0 51 51" fill="none" xmlns="http://www.w3.org/2000/svg">
<path d="M9.35427 5.7375C11.2764 4.1225 13.3907 2.82625 15.6972 1.84875C18.0038 0.87125 20.4171 0.255 22.9372 0V5.2275C21.1005 5.4825 19.3381 5.95 17.6501 6.63C15.9621 7.31 14.3928 8.2025 12.9422 9.3075L9.35427 5.7375ZM28.0628 0C30.5829 0.34 32.9962 0.9775 35.3028 1.9125C37.6093 2.8475 39.7236 4.1225 41.6457 5.7375L38.0578 9.3075C36.6055 8.2025 35.0354 7.31 33.3473 6.63C31.6593 5.95 29.8978 5.4825 28.0628 5.2275V0ZM3.8147e-06 22.8225C0.256283 20.315 0.864525 17.9248 1.82473 15.6519C2.78493 13.379 4.05608 11.2642 5.6382 9.3075L9.35427 12.8775C8.24372 14.365 7.32538 15.9375 6.59925 17.595C5.87312 19.2525 5.38191 20.995 5.12563 22.8225H3.8147e-06ZM41.6457 13.005L45.3618 9.3075C46.9422 11.305 48.2134 13.4513 49.1753 15.7463C50.1372 18.0413 50.7454 20.4425 51 22.95H45.8744C45.6181 21.1225 45.1269 19.3698 44.4008 17.6919C43.6746 16.014 42.7563 14.4517 41.6457 13.005ZM3.8147e-06 27.9225H5.12563C5.38191 29.7925 5.86201 31.5673 6.56593 33.2469C7.26985 34.9265 8.1993 36.5092 9.35427 37.995L5.6382 41.6925C4.01508 39.695 2.73367 37.5385 1.79397 35.2231C0.854275 32.9077 0.256283 30.4742 3.8147e-06 27.9225ZM41.6457 38.1225C42.7563 36.635 43.6746 35.0412 44.4008 33.3412C45.1269 31.6412 45.6181 29.8775 45.8744 28.05H51C50.7437 30.5575 50.1346 32.9698 49.1727 35.2869C48.2108 37.604 46.9405 39.7392 45.3618 41.6925L41.6457 38.1225ZM9.35427 45.2625L12.9422 41.6925C14.3945 42.7975 15.9638 43.69 17.6501 44.37C19.3364 45.05 21.0988 45.5175 22.9372 45.7725V51C20.4171 50.66 18.0038 50.0225 15.6972 49.0875C13.3907 48.1525 11.2764 46.8775 9.35427 45.2625ZM28.0628 45.7725C29.8995 45.5175 31.661 45.05 33.3473 44.37C35.0337 43.69 36.6038 42.7975 38.0578 41.6925L41.6457 45.2625C39.7236 46.8775 37.6093 48.1737 35.3028 49.1512C32.9962 50.1287 30.5829 50.745 28.0628 51V45.7725ZM12.6859 23.0137L28.5113 23.0137L21.848 16.3838L25.5 12.8138L38.3141 25.5637L25.5 38.3137L21.9121 34.68L28.5113 28.1137L12.6859 28.1137L12.6859 23.0137Z" fill="#D444D3"/>
</svg>
