<svg width="45" height="47" viewBox="0 0 45 47" fill="none" xmlns="http://www.w3.org/2000/svg">
<path d="M12.0828 22.0408C12.3677 18.8178 15.0923 16.9271 18.0645 16.9271C18.981 16.9271 19.8355 17.2444 20.5662 17.7646C23.3651 14.2878 23.3898 11.6993 23.3898 11.6993C22.139 10.6714 15.3399 10.1512 10.5471 14.1736C5.75436 18.1833 5.37044 22.929 5.40759 25.8094C5.40759 25.8094 8.55324 25.7333 12.3057 24.1091C12.1076 23.4366 12.0209 22.726 12.0828 22.0535V22.0408Z" fill="white"/>
<path d="M12.0703 28.601C10.6956 29.1594 11.5502 28.8167 8.29306 29.8699C8.10729 29.9334 7.81006 30.073 7.93391 30.0603C16.603 29.0198 23.8851 24.807 29.2476 17.8281C32.2694 13.8945 33.9661 9.37717 34.0404 4.31425C34.0404 3.81938 34.0528 3.40064 34.0528 3.04535C33.8051 3.48946 33.4583 3.88282 33.0372 4.20005C32.3932 4.77106 31.514 5.15173 30.4489 5.15173C30.3746 5.15173 30.3126 5.15173 30.2383 5.15173C30.2383 7.09315 29.9907 9.00919 29.3714 10.8618C26.4611 19.706 20.3432 25.2765 12.0579 28.6391L12.0703 28.601Z" fill="white"/>
<path d="M15.3399 32.0144C14.0891 32.2301 14.8693 32.1032 11.9466 32.3697C11.7732 32.3824 11.5131 32.4458 11.6122 32.4585C19.08 33.2071 25.941 31.0373 31.6874 26.1774C34.9322 23.4366 37.149 19.9725 38.115 15.7217C38.3874 14.5035 38.5484 13.8183 38.5236 13.4377C38.4989 13.4377 38.4741 13.4377 38.4493 13.4377C37.9168 14.5416 36.8765 15.3918 35.3284 15.4806C35.1551 15.4806 34.9817 15.4806 34.8207 15.4806C34.4739 17.1809 33.9166 18.8051 33.0373 20.3151C29.0248 27.1926 22.8821 30.7201 15.3399 32.0017V32.0144Z" fill="white"/>
<path d="M37.0993 37.0012C36.121 38.1178 34.9444 38.7776 33.3964 39.1456C32.7028 39.3106 32.0712 39.6532 31.5263 40.1227C26.6716 44.3101 19.7363 45.7693 13.284 43.0538C5.32078 39.7166 0.812822 30.8216 2.70765 22.2185C5.01116 11.7754 15.476 5.71006 25.2722 8.79349C25.4455 8.84425 25.6189 8.90769 25.7923 8.97114C26.0028 8.24787 26.2877 7.52459 26.6345 6.81401C26.3991 6.72518 26.1762 6.64905 25.9285 6.57291C15.0674 3.15957 3.48787 9.7071 0.627059 21.1145C-1.93653 31.3038 3.57456 41.9626 13.2468 45.5282C22.4113 48.9035 32.2694 45.0206 37.1117 37.0012C37.1613 36.925 37.1613 36.8997 37.0869 37.0012H37.0993Z" fill="white"/>
<path d="M36.5668 14.4908C36.7402 14.4908 36.864 14.3259 36.8516 14.1609L36.7649 12.6382C36.7649 12.486 36.6535 12.3845 36.5172 12.3591L36.4925 11.915C36.4925 11.8261 36.4553 11.8008 36.4182 11.8135C36.4182 11.8135 36.3439 11.8388 36.3562 11.9277L36.381 12.3718C36.2572 12.4225 36.1705 12.5367 36.1705 12.689L36.2572 14.2117C36.2572 14.3893 36.4182 14.5162 36.5792 14.5035L36.5668 14.4908ZM36.2943 12.4987C36.2943 12.4987 36.3191 12.3845 36.3562 12.3591V12.6636C36.381 12.7524 36.4058 12.7651 36.4429 12.7651H36.4677C36.4677 12.7651 36.5296 12.7398 36.5296 12.6509V12.3464C36.5296 12.3464 36.6039 12.4225 36.6039 12.486V12.7017C36.6163 12.7905 36.5544 12.8666 36.4677 12.8793C36.381 12.892 36.3067 12.8159 36.2943 12.7271V12.5114V12.4987Z" fill="white"/>
<path d="M37.7557 13.6534C37.9291 13.6534 38.053 13.4884 38.0406 13.3235L37.9167 11.2425C37.9167 11.0902 37.8053 10.9887 37.669 10.9633L37.6443 10.5192C37.6443 10.4304 37.6071 10.405 37.57 10.4177C37.57 10.4177 37.4957 10.4431 37.508 10.5319L37.5328 10.976C37.409 11.0267 37.3223 11.1409 37.3223 11.2932L37.4461 13.3742C37.4461 13.5519 37.6071 13.6788 37.7681 13.6661L37.7557 13.6534ZM37.4461 11.1029C37.4461 11.1029 37.4709 10.9887 37.508 10.9633V11.2678C37.5328 11.3567 37.5576 11.3694 37.5947 11.3694H37.6195C37.6195 11.3694 37.6814 11.344 37.6814 11.2552V10.9506C37.6814 10.9506 37.7557 11.0267 37.7557 11.0902V11.3059C37.7681 11.3947 37.7062 11.4709 37.6195 11.4836C37.5328 11.4962 37.4585 11.4201 37.4461 11.3313V11.1156V11.1029Z" fill="white"/>
<path d="M35.4276 14.9477C35.6009 14.9477 35.7248 14.7827 35.7124 14.6178L35.6629 13.8183C35.6629 13.6788 35.5514 13.5646 35.4276 13.5392C35.4771 13.5646 35.5019 13.6153 35.5142 13.6661V13.8564C35.5266 13.9452 35.4647 14.0214 35.378 14.0341C35.2913 14.0467 35.217 13.9706 35.2046 13.8818V13.6915C35.2046 13.6915 35.217 13.5899 35.2542 13.5519C35.1303 13.6026 35.0436 13.7168 35.0436 13.8564L35.0932 14.6558C35.0932 14.8335 35.2542 14.9604 35.4152 14.9477H35.4276Z" fill="white"/>
<path d="M21.7636 36.9675C20.5127 37.1832 21.2929 37.0564 18.3702 37.3228C18.1968 37.3355 17.9368 37.399 18.0358 37.4116C25.5037 38.1603 32.3647 35.9905 38.1111 31.1306C41.3558 28.3898 43.5726 24.9257 44.5386 20.6748C44.8111 19.4567 44.9721 18.7715 44.9473 18.3908C44.9225 18.3908 44.8978 18.3908 44.873 18.3908C44.3405 19.4948 43.3002 20.3449 41.7521 20.4337C41.5787 20.4337 41.4053 20.4337 41.2443 20.4337C40.8976 22.1341 40.3403 23.7583 39.461 25.2683C35.4484 32.1457 29.3057 35.6733 21.7636 36.9548V36.9675Z" fill="white"/>
<path d="M42.9904 19.444C43.1637 19.444 43.2876 19.279 43.2752 19.1141L43.1885 17.5914C43.1885 17.4391 43.077 17.3376 42.9408 17.3122L42.9161 16.8681C42.9161 16.7793 42.8789 16.7539 42.8418 16.7666C42.8418 16.7666 42.7674 16.792 42.7798 16.8808L42.8046 17.3249C42.6807 17.3757 42.5941 17.4899 42.5941 17.6422L42.6807 19.1648C42.6807 19.3425 42.8417 19.4694 43.0027 19.4567L42.9904 19.444ZM42.7179 17.4518C42.7179 17.4518 42.7427 17.3376 42.7798 17.3122V17.6168C42.8046 17.7056 42.8294 17.7183 42.8665 17.7183H42.8913C42.8913 17.7183 42.9532 17.6929 42.9532 17.6041V17.2996C42.9532 17.2996 43.0275 17.3757 43.0275 17.4391V17.6548C43.0399 17.7437 42.978 17.8198 42.8913 17.8325C42.8046 17.8452 42.7303 17.769 42.7179 17.6802V17.4645V17.4518Z" fill="white"/>
<path d="M44.1793 18.6065C44.3527 18.6065 44.4765 18.4415 44.4642 18.2766L44.3403 16.1956C44.3403 16.0433 44.2288 15.9418 44.0926 15.9164L44.0678 15.4723C44.0678 15.3835 44.0307 15.3581 43.9935 15.3708C43.9935 15.3708 43.9192 15.3962 43.9316 15.485L43.9564 15.9291C43.8325 15.9799 43.7458 16.0941 43.7458 16.2463L43.8697 18.3273C43.8697 18.505 44.0307 18.6319 44.1917 18.6192L44.1793 18.6065ZM43.8697 16.056C43.8697 16.056 43.8945 15.9418 43.9316 15.9164V16.221C43.9564 16.3098 43.9812 16.3225 44.0183 16.3225H44.0431C44.0431 16.3225 44.105 16.2971 44.105 16.2083V15.9037C44.105 15.9037 44.1793 15.9799 44.1793 16.0433V16.259C44.1917 16.3479 44.1298 16.424 44.0431 16.4367C43.9564 16.4494 43.8821 16.3732 43.8697 16.2844V16.0687V16.056Z" fill="white"/>
<path d="M41.8511 19.9008C42.0245 19.9008 42.1484 19.7359 42.136 19.5709L42.0864 18.7715C42.0864 18.6319 41.975 18.5177 41.8511 18.4923C41.9007 18.5177 41.9254 18.5685 41.9378 18.6192V18.8096C41.9502 18.8984 41.8883 18.9745 41.8016 18.9872C41.7149 18.9999 41.6406 18.9238 41.6282 18.8349V18.6446C41.6282 18.6446 41.6406 18.5431 41.6778 18.505C41.5539 18.5558 41.4672 18.67 41.4672 18.8096L41.5168 19.609C41.5168 19.7866 41.6778 19.9135 41.8388 19.9008H41.8511Z" fill="white"/>
<path d="M35.2789 13.8183C35.2789 13.9072 35.3165 13.9198 35.3541 13.9198H35.3792C35.3792 13.9198 35.4418 13.8945 35.4418 13.8056V13.5265L35.4168 13.0443C35.4168 12.9555 35.3792 12.9301 35.3416 12.9428C35.3416 12.9428 35.2663 12.9682 35.2789 13.057L35.304 13.5392V13.8183H35.2789Z" fill="white"/>
<path d="M32.0836 4.04776C32.257 4.04776 32.3932 3.90818 32.3932 3.73053V2.19516C32.3932 2.04289 32.2941 1.92869 32.1579 1.89062V1.44651C32.1579 1.35768 32.1331 1.33231 32.0836 1.33231C32.0836 1.33231 32.0093 1.35768 32.0093 1.44651V1.89062C31.8855 1.92869 31.7864 2.04289 31.7864 2.18247V3.71784C31.7864 3.89549 31.9226 4.03507 32.096 4.03507L32.0836 4.04776ZM31.9226 2.04289C31.9226 2.04289 31.9598 1.94138 31.9969 1.90331V2.20785C31.9969 2.29667 32.0217 2.30936 32.0712 2.30936H32.096C32.096 2.30936 32.1703 2.29667 32.1703 2.20785V1.90331C32.1703 1.90331 32.257 1.97945 32.257 2.04289V2.2586C32.257 2.34743 32.1827 2.42356 32.096 2.42356C32.0093 2.42356 31.935 2.34743 31.935 2.2586V2.04289H31.9226Z" fill="white"/>
<path d="M33.2973 3.27377C33.4707 3.27377 33.607 3.13419 33.607 2.95654V0.862853C33.607 0.710585 33.5079 0.596383 33.3717 0.558316V0.114201C33.3717 0.0253776 33.3469 0 33.2973 0C33.2973 0 33.223 0.0253776 33.223 0.114201V0.558316C33.0992 0.596383 33.0001 0.710585 33.0001 0.850164V2.94385C33.0001 3.1215 33.1364 3.26108 33.3097 3.26108L33.2973 3.27377ZM33.1364 0.710585C33.1364 0.710585 33.1735 0.609073 33.2107 0.571006V0.875542C33.2107 0.964365 33.2354 0.977054 33.285 0.977054H33.3097C33.3097 0.977054 33.384 0.964365 33.384 0.875542V0.571006C33.384 0.571006 33.4707 0.64714 33.4707 0.710585V0.926298C33.4707 1.01512 33.3964 1.09126 33.3097 1.09126C33.223 1.09126 33.1487 1.01512 33.1487 0.926298V0.710585H33.1364Z" fill="white"/>
<path d="M30.8576 4.6568C31.031 4.6568 31.1673 4.51722 31.1673 4.33958V3.54017C31.1673 3.40059 31.0682 3.28639 30.9443 3.24832C30.9939 3.2737 31.0187 3.32446 31.0187 3.3879V3.57824C31.0187 3.66706 30.9443 3.74319 30.8576 3.74319C30.771 3.74319 30.6967 3.66706 30.6967 3.57824V3.3879C30.6967 3.3879 30.7214 3.28639 30.771 3.24832C30.6471 3.28639 30.548 3.40059 30.548 3.54017V4.33958C30.548 4.51722 30.6843 4.6568 30.8576 4.6568Z" fill="white"/>
<path d="M30.7833 3.51482C30.7833 3.60365 30.8083 3.61634 30.8585 3.61634H30.8836C30.8836 3.61634 30.9588 3.60365 30.9588 3.51482V3.23567V2.75348C30.9588 2.66466 30.9337 2.63928 30.8836 2.63928C30.8836 2.63928 30.8083 2.66466 30.8083 2.75348V3.23567V3.51482H30.7833Z" fill="white"/>
</svg>
