<svg width="102" height="20" viewBox="0 0 102 20" fill="none" xmlns="http://www.w3.org/2000/svg">
<g clip-path="url(#clip0_56_6)">
<path d="M59.1856 4.6447C60.7547 4.6447 61.7881 3.63394 61.7881 2.25256C61.7881 0.871183 60.7547 0 59.1856 0C57.6166 0 56.5831 1.01076 56.5831 2.32476C56.5831 3.63875 57.6166 4.64952 59.1856 4.64952V4.6447Z" fill="white"/>
<path d="M29.7502 10.5312C29.8582 9.30866 30.8917 8.5915 32.0192 8.5915C32.3668 8.5915 32.6909 8.71183 32.9681 8.90917C34.0298 7.59036 34.0391 6.60848 34.0391 6.60848C33.5647 6.21861 30.9857 6.02127 29.1677 7.54705C27.3497 9.06801 27.2041 10.8681 27.2182 11.9607C27.2182 11.9607 28.4114 11.9318 29.8348 11.3158C29.7596 11.0607 29.7267 10.7911 29.7502 10.536V10.5312Z" fill="white"/>
<path d="M29.7455 13.0196C29.2241 13.2314 29.5482 13.1014 28.3127 13.5009C28.2423 13.525 28.1295 13.5779 28.1765 13.5731C31.4648 13.1784 34.2271 11.5805 36.2611 8.93324C37.4074 7.44115 38.0509 5.72767 38.0791 3.80721C38.0791 3.6195 38.0838 3.46067 38.0838 3.3259C37.9899 3.49436 37.8583 3.64357 37.6986 3.7639C37.4543 3.98049 37.1208 4.12488 36.7168 4.12488C36.6886 4.12488 36.6651 4.12488 36.637 4.12488C36.637 4.8613 36.543 5.58808 36.3081 6.29081C35.2042 9.64558 32.8835 11.7586 29.7408 13.0341L29.7455 13.0196Z" fill="white"/>
<path d="M30.9857 14.3144C30.5112 14.3962 30.8072 14.3481 29.6985 14.4491C29.6328 14.4539 29.5341 14.478 29.5717 14.4828C32.4044 14.7668 35.0069 13.9437 37.1866 12.1003C38.4174 11.0607 39.2582 9.74666 39.6247 8.13425C39.728 7.67219 39.7891 7.41228 39.7797 7.26788C39.7703 7.26788 39.7609 7.26788 39.7515 7.26788C39.5495 7.68663 39.1549 8.00911 38.5677 8.0428C38.5019 8.0428 38.4361 8.0428 38.3751 8.0428C38.2435 8.68777 38.0321 9.30385 37.6986 9.87662C36.1766 12.4854 33.8465 13.8234 30.9857 14.3095V14.3144Z" fill="white"/>
<path d="M100.422 12.2014C100.417 11.98 100.412 11.7586 100.407 11.5372C100.407 11.5035 100.407 11.465 100.407 11.4265C99.6136 11.4265 96.8326 11.412 93.159 11.3976V12.1966H100.417C100.417 12.1966 100.417 12.1966 100.422 12.1966V12.2014Z" fill="white"/>
<path d="M77.6662 11.4216C61.4875 11.3783 40.1461 11.3206 39.8267 11.3158C39.7421 11.3158 39.7233 11.3928 39.7233 11.3928C39.432 12.1484 39.0468 12.8511 38.5113 13.4287C36.543 15.5513 34.1519 16.2396 31.4742 15.9556C31.028 15.9075 31.3051 15.9412 30.2904 15.7487C30.2294 15.739 30.1354 15.7342 30.1683 15.7487C32.6393 16.7643 35.1619 16.6487 37.5389 15.4358C38.8308 14.7812 39.8595 13.7801 40.5595 12.4035C40.6112 12.3024 40.7051 12.2399 40.8132 12.2399H77.6662V11.4168V11.4216Z" fill="white"/>
<path d="M39.2394 16.2059C38.8683 16.6295 38.4221 16.8798 37.8348 17.0194C37.5718 17.0819 37.3322 17.2119 37.1255 17.39C35.284 18.9783 32.6533 19.5318 30.2059 18.5018C27.1853 17.2359 25.4753 13.8619 26.1941 10.5986C27.0678 6.63735 31.0374 4.33666 34.7532 5.50626C34.819 5.52551 34.8847 5.54958 34.9505 5.57364C35.0304 5.29929 35.1384 5.02494 35.2699 4.75541C35.1807 4.72171 35.0961 4.69283 35.0022 4.66395C30.8823 3.36921 26.49 5.85281 25.4049 10.1798C24.4325 14.0448 26.5229 18.0879 30.1918 19.4404C33.668 20.7207 37.4074 19.2478 39.2441 16.2059C39.2629 16.177 39.2629 16.1674 39.2347 16.2059H39.2394Z" fill="white"/>
<path d="M39.0374 7.66738C39.1032 7.66738 39.1502 7.6048 39.1455 7.54223L39.1126 6.96465C39.1126 6.90689 39.0703 6.86839 39.0186 6.85876L39.0093 6.6903C39.0093 6.65661 38.9952 6.64698 38.9811 6.6518C38.9811 6.6518 38.9529 6.66142 38.9576 6.69512L38.967 6.86358C38.92 6.88283 38.8871 6.92615 38.8871 6.98391L38.92 7.56149C38.92 7.62887 38.9811 7.677 39.0421 7.67219L39.0374 7.66738ZM38.9341 6.91171C38.9341 6.91171 38.9435 6.86839 38.9576 6.85876V6.97428C38.967 7.00797 38.9764 7.01278 38.9905 7.01278H38.9999C38.9999 7.01278 39.0233 7.00316 39.0233 6.96947V6.85395C39.0233 6.85395 39.0515 6.88283 39.0515 6.90689V6.98872C39.0562 7.02241 39.0327 7.05129 38.9999 7.0561C38.967 7.06092 38.9388 7.03204 38.9341 6.99834V6.91652V6.91171Z" fill="white"/>
<path d="M39.4884 7.3497C39.5542 7.3497 39.6012 7.28713 39.5965 7.22456L39.5495 6.4352C39.5495 6.37744 39.5072 6.33894 39.4555 6.32931L39.4461 6.16085C39.4461 6.12716 39.4321 6.11753 39.418 6.12235C39.418 6.12235 39.3898 6.13197 39.3945 6.16567L39.4039 6.33413C39.3569 6.35338 39.324 6.3967 39.324 6.45446L39.371 7.24381C39.371 7.3112 39.4321 7.35933 39.4931 7.35452L39.4884 7.3497ZM39.371 6.38226C39.371 6.38226 39.3804 6.33894 39.3945 6.32931V6.44483C39.4039 6.47852 39.4133 6.48333 39.4274 6.48333H39.4367C39.4367 6.48333 39.4602 6.47371 39.4602 6.44002V6.3245C39.4602 6.3245 39.4884 6.35338 39.4884 6.37745V6.45927C39.4931 6.49296 39.4696 6.52184 39.4367 6.52665C39.4039 6.53147 39.3757 6.50259 39.371 6.46889V6.38707V6.38226Z" fill="white"/>
<path d="M38.6053 7.84065C38.671 7.84065 38.718 7.77808 38.7133 7.71551L38.6945 7.41228C38.6945 7.35933 38.6522 7.31602 38.6053 7.30639C38.624 7.31602 38.6334 7.33527 38.6381 7.35452V7.42672C38.6428 7.46041 38.6193 7.48929 38.5865 7.4941C38.5536 7.49892 38.5254 7.47004 38.5207 7.43634V7.36415C38.5207 7.36415 38.5254 7.32564 38.5395 7.3112C38.4925 7.33045 38.4596 7.37377 38.4596 7.42672L38.4784 7.72995C38.4784 7.79733 38.5395 7.84546 38.6006 7.84065H38.6053Z" fill="white"/>
<path d="M38.5489 7.41227C38.5489 7.44596 38.5632 7.45078 38.5774 7.45078H38.5869C38.5869 7.45078 38.6107 7.44115 38.6107 7.40746V7.30157L38.6012 7.11867C38.6012 7.08498 38.5869 7.07535 38.5727 7.08016C38.5727 7.08016 38.5441 7.08979 38.5489 7.12348L38.5584 7.30638V7.41227H38.5489Z" fill="white"/>
<path d="M7.7934 1.78568H0V19.2575H4.82448V14.6898H7.79809C12.4488 14.6898 15.3754 12.2206 15.3754 8.24976C15.3754 4.2789 12.4488 1.78568 7.7934 1.78568ZM7.50214 10.7959H4.82448V5.67953H7.50214C9.49864 5.67953 10.4992 6.62773 10.4992 8.24976C10.4992 9.8718 9.49864 10.7959 7.50214 10.7959Z" fill="white"/>
<path d="M24.0097 9.69853C24.0097 9.69853 24.0144 9.69853 24.0191 9.69853C24.5922 9.69853 25.0572 9.23165 25.0572 8.64445V5.50626C23.1077 5.50626 21.5716 6.13198 20.6227 7.35452V5.73248H16.2116V19.2623H20.8388V13.0485C20.8388 10.6756 22.1306 9.70334 24.005 9.70334L24.0097 9.69853Z" fill="white"/>
<path d="M102 8.57706V5.43887C100.05 5.43887 98.5143 6.06458 97.5654 7.28713V5.66509H93.1543V10.5408H98.5425C99.1015 9.91512 99.9424 9.63114 100.948 9.63114C100.948 9.63114 100.952 9.63114 100.957 9.63114C101.53 9.63114 101.995 9.16426 101.995 8.57706H102Z" fill="white"/>
<path d="M97.7862 13.0485C97.7862 13.0485 97.7862 13.0437 97.7862 13.0389H93.159V19.2623H97.7862V13.0485Z" fill="white"/>
<path d="M70.3144 9.27497C71.3056 9.27497 72.1559 9.74185 72.6491 10.6082H77.5722C76.8629 7.41709 74.3215 5.50145 71.2915 5.50145C69.7554 5.50145 68.5152 5.94907 67.6132 6.89727V1.89639C67.6132 1.25623 67.1059 0.741226 66.4858 0.741226H62.9861V10.613H67.9843C68.4729 9.74666 69.3232 9.27978 70.3191 9.27978L70.3144 9.27497Z" fill="white"/>
<path d="M70.3144 15.715C68.9051 15.715 67.7777 14.7524 67.5757 13.0389H62.9814V19.2623H67.3924V17.9146C68.2709 18.9879 69.5628 19.4885 71.2915 19.4885C74.7114 19.4885 77.5065 17.029 77.7507 13.0437H73.0578C72.8558 14.7572 71.7284 15.7198 70.3191 15.7198L70.3144 15.715Z" fill="white"/>
<path d="M54.3894 8.98137H46.8637V5.60252H54.084C54.8168 5.60252 55.4134 4.99125 55.4134 4.2404V1.78568H42.0392V10.6082H54.3894V8.98137Z" fill="white"/>
<path d="M46.8637 13.0389H42.0392V19.2623H46.8637V13.0389Z" fill="white"/>
<path d="M59.9983 5.73248H56.8744V10.613H61.5016V7.2727C61.5016 6.42077 60.8298 5.73248 59.9983 5.73248Z" fill="white"/>
<path d="M61.5016 13.0389H56.8744V19.2623H61.5016V13.0389Z" fill="white"/>
<path d="M85.9763 19.4837C88.4849 19.4837 90.3358 18.7328 91.6041 17.2889L89.166 14.6946C88.2641 15.4936 87.4138 15.869 86.122 15.869C84.4167 15.869 83.2705 15.07 82.8806 13.6983H92.4779C92.5014 13.3228 92.553 12.8752 92.553 12.5239C92.553 8.05724 89.3868 5.51108 85.4878 5.51108C81.321 5.51108 78.2299 8.4086 78.2299 12.4757C78.2299 16.5429 81.274 19.4885 85.9763 19.4885V19.4837ZM85.5113 8.87548C86.9488 8.87548 87.9728 9.77554 88.2171 11.1954H82.8101C83.0779 9.77073 84.0785 8.87548 85.516 8.87548H85.5113Z" fill="white"/>
<path d="M37.3369 3.70613C37.4027 3.70613 37.4543 3.65319 37.4543 3.58581V3.00341C37.4543 2.94565 37.4168 2.90234 37.3651 2.8879V2.71944C37.3651 2.68574 37.3557 2.67612 37.3369 2.67612C37.3369 2.67612 37.3087 2.68574 37.3087 2.71944V2.8879C37.2617 2.90234 37.2242 2.94565 37.2242 2.9986V3.58099C37.2242 3.64838 37.2758 3.70132 37.3416 3.70132L37.3369 3.70613ZM37.2758 2.94565C37.2758 2.94565 37.2899 2.90715 37.304 2.89271V3.00823C37.304 3.04192 37.3134 3.04673 37.3322 3.04673H37.3416C37.3416 3.04673 37.3698 3.04192 37.3698 3.00823V2.89271C37.3698 2.89271 37.4027 2.92159 37.4027 2.94565V3.02748C37.4027 3.06117 37.3745 3.09005 37.3416 3.09005C37.3087 3.09005 37.2805 3.06117 37.2805 3.02748V2.94565H37.2758Z" fill="white"/>
<path d="M37.7973 3.41253C37.863 3.41253 37.9147 3.35959 37.9147 3.29221V2.49803C37.9147 2.44028 37.8771 2.39696 37.8255 2.38252V2.21406C37.8255 2.18036 37.8161 2.17074 37.7973 2.17074C37.7973 2.17074 37.7691 2.18036 37.7691 2.21406V2.38252C37.7221 2.39696 37.6845 2.44028 37.6845 2.49322V3.28739C37.6845 3.35478 37.7362 3.40772 37.802 3.40772L37.7973 3.41253ZM37.7362 2.44028C37.7362 2.44028 37.7503 2.40177 37.7644 2.38733V2.50285C37.7644 2.53654 37.7738 2.54135 37.7926 2.54135H37.802C37.802 2.54135 37.8302 2.53654 37.8302 2.50285V2.38733C37.8302 2.38733 37.863 2.41621 37.863 2.44028V2.5221C37.863 2.55579 37.8348 2.58467 37.802 2.58467C37.7691 2.58467 37.7409 2.55579 37.7409 2.5221V2.44028H37.7362Z" fill="white"/>
<path d="M36.8718 3.93717C36.9376 3.93717 36.9893 3.88422 36.9893 3.81684V3.51361C36.9893 3.46067 36.9517 3.41735 36.9047 3.40291C36.9235 3.41253 36.9329 3.43179 36.9329 3.45585V3.52805C36.9329 3.56174 36.9047 3.59062 36.8718 3.59062C36.839 3.59062 36.8108 3.56174 36.8108 3.52805V3.45585C36.8108 3.45585 36.8202 3.41735 36.839 3.40291C36.792 3.41735 36.7544 3.46067 36.7544 3.51361V3.81684C36.7544 3.88422 36.8061 3.93717 36.8718 3.93717Z" fill="white"/>
<path d="M36.8436 3.50398C36.8436 3.53768 36.8532 3.54249 36.8722 3.54249H36.8817C36.8817 3.54249 36.9102 3.53768 36.9102 3.50398V3.39809V3.21519C36.9102 3.1815 36.9007 3.17188 36.8817 3.17188C36.8817 3.17188 36.8532 3.1815 36.8532 3.21519V3.39809V3.50398H36.8436Z" fill="white"/>
</g>
<defs>
<clipPath id="clip0_56_6">
<rect width="102" height="19.9024" fill="white"/>
</clipPath>
</defs>
</svg>
